<svg xmlns="http://www.w3.org/2000/svg" width="1080" height="1080" viewBox="0 0 1080 1080">
  <rect width="1080" height="1080" fill="#FAFAF7"/>
  <rect x="40" y="40" width="1000" height="1000" fill="none" stroke="#D9DBD4" stroke-width="2"/>
  <text x="84" y="112" font-family='"SF Mono", Menlo, Consolas, monospace' font-size="26" letter-spacing="5" fill="#1E6B4F">PRODUCT DESIGN HARNESS</text>
  <text x="996" y="112" text-anchor="end" font-family='"SF Mono", Menlo, Consolas, monospace' font-size="26" letter-spacing="3" fill="#5A615C">07 / 10</text>

  <text x="84" y="300" font-family='Georgia, "Times New Roman", serif' font-size="92" fill="#1A1D1B">It does not stop</text>
  <text x="84" y="408" font-family='Georgia, "Times New Roman", serif' font-size="92" fill="#1A1D1B">at launch.</text>
  <rect x="84" y="480" width="240" height="76" fill="#FAFAF7" stroke="#1E6B4F" stroke-width="2.5"/><text x="204.0" y="528" text-anchor="middle" font-family='-apple-system, "Segoe UI", Helvetica, Arial, sans-serif' font-size="30" fill="#1A1D1B">Direction</text><rect x="360" y="480" width="150" height="76" fill="#FAFAF7" stroke="#D9DBD4" stroke-width="2.5"/><text x="435.0" y="528" text-anchor="middle" font-family='-apple-system, "Segoe UI", Helvetica, Arial, sans-serif' font-size="30" fill="#1A1D1B">Spec</text><rect x="546" y="480" width="250" height="76" fill="#FAFAF7" stroke="#D9DBD4" stroke-width="2.5"/><text x="671.0" y="528" text-anchor="middle" font-family='-apple-system, "Segoe UI", Helvetica, Arial, sans-serif' font-size="30" fill="#1A1D1B">Build + Test</text><rect x="84" y="640" width="200" height="76" fill="#FAFAF7" stroke="#D9DBD4" stroke-width="2.5"/><text x="184.0" y="688" text-anchor="middle" font-family='-apple-system, "Segoe UI", Helvetica, Arial, sans-serif' font-size="30" fill="#1A1D1B">Launch</text><rect x="320" y="640" width="420" height="76" fill="#FAFAF7" stroke="#1E6B4F" stroke-width="2.5"/><text x="530.0" y="688" text-anchor="middle" font-family='-apple-system, "Segoe UI", Helvetica, Arial, sans-serif' font-size="30" fill="#1A1D1B">User testing + feedback</text>
  <path d="M 530 758 C 530 878, 40 878, 148 580" fill="none" stroke="#1E6B4F" stroke-width="4"/>
  <path d="M 132 596 L 152 568 L 160 600 Z" fill="#1E6B4F"/>
  <text x="560" y="836" font-family='-apple-system, "Segoe UI", Helvetica, Arial, sans-serif' font-size="30" font-style="italic" fill="#1E6B4F">verdicts feed the next review</text>

<g transform="translate(84,920) scale(0.72)">
    <path d="M10 8 V36 Q10 54 26 54 Q42 54 42 36 V8" fill="none" stroke="#1A1D1B" stroke-width="9"/>
    <path d="M54 8 L82 54 M82 8 L54 54" fill="none" stroke="#1A1D1B" stroke-width="9"/>
    <rect x="94" y="8" width="26" height="9" fill="#1A1D1B"/>
    <rect x="102" y="27" width="18" height="9" fill="#1A1D1B"/>
    <rect x="90" y="46" width="30" height="9" fill="#1A1D1B"/>
  </g>
  <text x="996" y="972" text-anchor="end" font-family='"SF Mono", Menlo, Consolas, monospace' font-size="24" fill="#5A615C">github.com/cis2042/product-design-harness</text>
</svg>
