<svg xmlns="http://www.w3.org/2000/svg" width="1080" height="1080" viewBox="0 0 1080 1080">
  <rect width="1080" height="1080" fill="#FAFAF7"/>
  <rect x="40" y="40" width="1000" height="1000" fill="none" stroke="#D9DBD4" stroke-width="2"/>
  <text x="84" y="112" font-family='"SF Mono", Menlo, Consolas, monospace' font-size="26" letter-spacing="5" fill="#1E6B4F">PRODUCT DESIGN HARNESS</text>
  <text x="996" y="112" text-anchor="end" font-family='"SF Mono", Menlo, Consolas, monospace' font-size="26" letter-spacing="3" fill="#5A615C">09 / 10</text>

  <text x="84" y="300" font-family='Georgia, "Times New Roman", serif' font-size="92" fill="#1A1D1B">Limits stated,</text>
  <text x="84" y="408" font-family='Georgia, "Times New Roman", serif' font-size="92" fill="#1A1D1B">not hidden.</text>
  <text x="84" y="530" font-family='"SF Mono", Menlo, Consolas, monospace' font-size="34" letter-spacing="2" fill="#1E6B4F">ENFORCED BY MACHINE</text>
  <text x="84" y="590" font-family='-apple-system, "Segoe UI", Helvetica, Arial, sans-serif' font-size="32" fill="#5A615C">verdict consistency / evidence tiers / boundaries</text>
  <text x="84" y="700" font-family='"SF Mono", Menlo, Consolas, monospace' font-size="34" letter-spacing="2" fill="#A33D2A">STATED AS UNENFORCEABLE</text>
  <text x="84" y="760" font-family='-apple-system, "Segoe UI", Helvetica, Arial, sans-serif' font-size="32" fill="#5A615C">evidence truth / human-gate recognition / independence</text>
  <text x="84" y="856" font-family='-apple-system, "Segoe UI", Helvetica, Arial, sans-serif' font-size="34" font-style="italic" fill="#1A1D1B">Evaluating agents will test the claims. They should.</text>

<g transform="translate(84,920) scale(0.72)">
    <path d="M10 8 V36 Q10 54 26 54 Q42 54 42 36 V8" fill="none" stroke="#1A1D1B" stroke-width="9"/>
    <path d="M54 8 L82 54 M82 8 L54 54" fill="none" stroke="#1A1D1B" stroke-width="9"/>
    <rect x="94" y="8" width="26" height="9" fill="#1A1D1B"/>
    <rect x="102" y="27" width="18" height="9" fill="#1A1D1B"/>
    <rect x="90" y="46" width="30" height="9" fill="#1A1D1B"/>
  </g>
  <text x="996" y="972" text-anchor="end" font-family='"SF Mono", Menlo, Consolas, monospace' font-size="24" fill="#5A615C">github.com/cis2042/product-design-harness</text>
</svg>
